<svg width="247" height="85" viewBox="0 0 247 85" fill="none" xmlns="http://www.w3.org/2000/svg">
<rect x="89" y="62.9974" width="64.2426" height="10.0987" rx="1" transform="rotate(-45 89 62.9974)" fill="#406FA6"/>
<rect x="103.712" y="62.5673" width="64.2426" height="10.0987" rx="1" transform="rotate(-45 103.712 62.5673)" fill="#C3F2FC"/>
<path d="M123.164 30.4084V68.9053H111.801V30.4084H123.164ZM117.411 10.1088C119.376 10.1088 120.982 10.7371 122.229 11.9937C123.523 13.2021 124.171 14.7487 124.171 16.6337C124.171 18.5186 123.523 20.0894 122.229 21.3461C120.982 22.5544 119.376 23.1586 117.411 23.1586C115.445 23.1586 113.839 22.5544 112.592 21.3461C111.346 20.0894 110.722 18.5186 110.722 16.6337C110.722 14.7487 111.346 13.2021 112.592 11.9937C113.839 10.7371 115.445 10.1088 117.411 10.1088Z" fill="#141414"/>
<path d="M124.174 16.7968C124.174 20.5505 121.156 23.5935 117.432 23.5935C113.709 23.5935 110.69 20.5505 110.69 16.7968C110.69 13.043 113.709 10 117.432 10C121.156 10 124.174 13.043 124.174 16.7968Z" fill="#406FA6"/>
</svg>
