<svg width="20" height="20" viewBox="0 0 20 20" fill="none" xmlns="http://www.w3.org/2000/svg">
<path d="M14.5833 3.75C12.9583 3.75 11.2083 4.08333 9.99998 5C8.79165 4.08333 7.04165 3.75 5.41665 3.75C4.20831 3.75 2.92498 3.93333 1.84998 4.40833C1.24165 4.68333 0.833313 5.275 0.833313 5.95V15.35C0.833313 16.4333 1.84998 17.2333 2.89998 16.9667C3.71665 16.7583 4.58331 16.6667 5.41665 16.6667C6.71665 16.6667 8.09998 16.8833 9.21665 17.4333C9.71665 17.6833 10.2833 17.6833 10.775 17.4333C11.8916 16.875 13.275 16.6667 14.575 16.6667C15.4083 16.6667 16.275 16.7583 17.0916 16.9667C18.1416 17.2417 19.1583 16.4417 19.1583 15.35V5.95C19.1583 5.275 18.75 4.68333 18.1416 4.40833C17.075 3.93333 15.7916 3.75 14.5833 3.75ZM17.5 14.3583C17.5 14.8833 17.0166 15.2667 16.5 15.175C15.875 15.0583 15.225 15.0083 14.5833 15.0083C13.1666 15.0083 11.125 15.55 9.99998 16.2583V6.66667C11.125 5.95833 13.1666 5.41667 14.5833 5.41667C15.35 5.41667 16.1083 5.49167 16.8333 5.65C17.2166 5.73333 17.5 6.075 17.5 6.46667V14.3583Z" fill="url(#paint0_linear_13_49)"/>
<path d="M11.65 9.17504C11.3833 9.17504 11.1416 9.00837 11.0583 8.74171C10.95 8.41671 11.1333 8.05838 11.4583 7.95838C12.7416 7.54171 14.4 7.40838 15.925 7.58338C16.2666 7.62504 16.5166 7.93338 16.475 8.27504C16.4333 8.61671 16.125 8.86671 15.7833 8.82504C14.4333 8.66671 12.9583 8.79171 11.8416 9.15004C11.775 9.15837 11.7083 9.17504 11.65 9.17504Z" fill="url(#paint1_linear_13_49)"/>
<path d="M11.65 11.3917C11.3833 11.3917 11.1416 11.225 11.0583 10.9584C10.95 10.6334 11.1333 10.2751 11.4583 10.1751C12.7333 9.75838 14.4 9.62505 15.925 9.80005C16.2666 9.84172 16.5166 10.1501 16.475 10.4917C16.4333 10.8334 16.125 11.0834 15.7833 11.0417C14.4333 10.8834 12.9583 11.0084 11.8416 11.3667C11.775 11.3834 11.7083 11.3917 11.65 11.3917Z" fill="url(#paint2_linear_13_49)"/>
<path d="M11.65 13.6084C11.3833 13.6084 11.1416 13.4417 11.0583 13.1751C10.95 12.8501 11.1333 12.4917 11.4583 12.3917C12.7333 11.9751 14.4 11.8417 15.925 12.0167C16.2666 12.0584 16.5166 12.3667 16.475 12.7084C16.4333 13.0501 16.125 13.2917 15.7833 13.2584C14.4333 13.1001 12.9583 13.2251 11.8416 13.5834C11.775 13.6001 11.7083 13.6084 11.65 13.6084Z" fill="url(#paint3_linear_13_49)"/>
<defs>
<linearGradient id="paint0_linear_13_49" x1="9.99581" y1="3.75" x2="9.99581" y2="17.6208" gradientUnits="userSpaceOnUse">
<stop stop-color="#ACDCF1"/>
<stop offset="1" stop-color="#406FA6"/>
</linearGradient>
<linearGradient id="paint1_linear_13_49" x1="13.7533" y1="7.5083" x2="13.7533" y2="9.17504" gradientUnits="userSpaceOnUse">
<stop stop-color="#ACDCF1"/>
<stop offset="1" stop-color="#406FA6"/>
</linearGradient>
<linearGradient id="paint2_linear_13_49" x1="13.7533" y1="9.72498" x2="13.7533" y2="11.3917" gradientUnits="userSpaceOnUse">
<stop stop-color="#ACDCF1"/>
<stop offset="1" stop-color="#406FA6"/>
</linearGradient>
<linearGradient id="paint3_linear_13_49" x1="13.7533" y1="11.9417" x2="13.7533" y2="13.6084" gradientUnits="userSpaceOnUse">
<stop stop-color="#ACDCF1"/>
<stop offset="1" stop-color="#406FA6"/>
</linearGradient>
</defs>
</svg>
