<svg width="20" height="20" viewBox="0 0 20 20" fill="none" xmlns="http://www.w3.org/2000/svg">
<path d="M10.5416 13.0583C10.6583 12.7583 10.5833 12.4166 10.35 12.1833L8.60831 10.4666L8.63331 10.4416C10.0833 8.82496 11.1166 6.96663 11.725 4.99996H13.3416C13.7916 4.99996 14.1666 4.62496 14.1666 4.17496V4.15829C14.1666 3.70829 13.7916 3.33329 13.3416 3.33329H8.33331V2.49996C8.33331 2.04163 7.95831 1.66663 7.49998 1.66663C7.04165 1.66663 6.66665 2.04163 6.66665 2.49996V3.33329H1.65831C1.20831 3.33329 0.833313 3.70829 0.833313 4.15829C0.833313 4.61663 1.20831 4.98329 1.65831 4.98329H10.1416C9.58331 6.59996 8.69998 8.12496 7.49998 9.45829C6.82498 8.71663 6.25831 7.90829 5.78331 7.05829C5.64998 6.81663 5.40831 6.66663 5.13331 6.66663C4.55831 6.66663 4.19165 7.29163 4.47498 7.79163C4.99998 8.73329 5.64165 9.63329 6.39165 10.4666L2.74998 14.0583C2.41665 14.3833 2.41665 14.9166 2.74998 15.2416C3.07498 15.5666 3.59998 15.5666 3.93331 15.2416L7.49998 11.6666L9.18331 13.35C9.60831 13.775 10.3333 13.6166 10.5416 13.0583ZM14.5833 8.33329C14.0833 8.33329 13.6333 8.64163 13.4583 9.11663L10.4 17.2833C10.2 17.7916 10.5833 18.3333 11.125 18.3333C11.45 18.3333 11.7416 18.1333 11.8583 17.825L12.6 15.8333H16.5583L17.3083 17.825C17.425 18.125 17.7166 18.3333 18.0416 18.3333C18.5833 18.3333 18.9666 17.7916 18.775 17.2833L15.7166 9.11663C15.5333 8.64163 15.0833 8.33329 14.5833 8.33329ZM13.2333 14.1666L14.5833 10.5583L15.9333 14.1666H13.2333Z" fill="url(#paint0_linear_13_68)"/>
<defs>
<linearGradient id="paint0_linear_13_68" x1="9.82917" y1="1.66663" x2="9.82917" y2="18.3333" gradientUnits="userSpaceOnUse">
<stop stop-color="#ACDCF1"/>
<stop offset="1" stop-color="#406FA6"/>
</linearGradient>
</defs>
</svg>
