<svg width="165" height="50" viewBox="0 0 165 50" fill="none" xmlns="http://www.w3.org/2000/svg">
<path d="M7.992 5.73602V39H0.119995V5.73602H7.992ZM27.096 5.73602L16.488 20.664L27.96 39H18.84L8.232 21.24L18.792 5.73602H27.096Z" fill="#141414"/>
<path d="M50.1851 31.608C50.1851 32.568 50.3131 33.272 50.5691 33.72C50.8571 34.168 51.3051 34.504 51.9131 34.728L50.3291 39.672C48.7611 39.544 47.4811 39.208 46.4891 38.664C45.4971 38.088 44.7291 37.192 44.1851 35.976C42.5211 38.536 39.9611 39.816 36.5051 39.816C33.9771 39.816 31.9611 39.08 30.4571 37.608C28.9531 36.136 28.2011 34.216 28.2011 31.848C28.2011 29.064 29.2251 26.936 31.2731 25.464C33.3211 23.992 36.2811 23.256 40.1531 23.256H42.7451V22.152C42.7451 20.648 42.4251 19.624 41.7851 19.08C41.1451 18.504 40.0251 18.216 38.4251 18.216C37.5931 18.216 36.5851 18.344 35.4011 18.6C34.2171 18.824 33.0011 19.144 31.7531 19.56L30.0251 14.568C31.6251 13.96 33.2571 13.496 34.9211 13.176C36.6171 12.856 38.1851 12.696 39.6251 12.696C43.2731 12.696 45.9451 13.448 47.6411 14.952C49.3371 16.456 50.1851 18.712 50.1851 21.72V31.608ZM38.7131 34.392C40.4411 34.392 41.7851 33.576 42.7451 31.944V27.432H40.8731C39.1451 27.432 37.8491 27.736 36.9851 28.344C36.1531 28.952 35.7371 29.896 35.7371 31.176C35.7371 32.2 35.9931 33 36.5051 33.576C37.0491 34.12 37.7851 34.392 38.7131 34.392Z" fill="#141414"/>
<path d="M72.21 37.8C71.282 38.44 70.194 38.936 68.946 39.288C67.73 39.64 66.514 39.816 65.298 39.816C59.73 39.784 56.946 36.712 56.946 30.6V18.792H53.346V13.512H56.946V7.99202L64.53 7.12802V13.512H70.386L69.57 18.792H64.53V30.504C64.53 31.688 64.722 32.536 65.106 33.048C65.49 33.56 66.098 33.816 66.93 33.816C67.794 33.816 68.706 33.544 69.666 33L72.21 37.8Z" fill="#141414"/>
<path d="M82.3256 13.512V39H74.7416V13.512H82.3256ZM78.4856 0.0720215C79.7976 0.0720215 80.8696 0.488022 81.7016 1.32002C82.5656 2.12002 82.9976 3.14402 82.9976 4.39202C82.9976 5.64002 82.5656 6.68002 81.7016 7.51202C80.8696 8.31202 79.7976 8.71202 78.4856 8.71202C77.1736 8.71202 76.1016 8.31202 75.2696 7.51202C74.4376 6.68002 74.0216 5.64002 74.0216 4.39202C74.0216 3.14402 74.4376 2.12002 75.2696 1.32002C76.1016 0.488022 77.1736 0.0720215 78.4856 0.0720215Z" fill="#141414"/>
<path d="M110.512 25.752C110.512 26.808 110.464 27.72 110.368 28.488H94.5765C94.8325 30.632 95.4405 32.136 96.4005 33C97.3605 33.864 98.6885 34.296 100.384 34.296C101.408 34.296 102.4 34.12 103.36 33.768C104.32 33.384 105.36 32.808 106.48 32.04L109.6 36.264C106.624 38.632 103.312 39.816 99.6645 39.816C95.5365 39.816 92.3685 38.6 90.1605 36.168C87.9525 33.736 86.8485 30.472 86.8485 26.376C86.8485 23.784 87.3125 21.464 88.2405 19.416C89.1685 17.336 90.5285 15.704 92.3205 14.52C94.1125 13.304 96.2565 12.696 98.7525 12.696C102.432 12.696 105.312 13.848 107.392 16.152C109.472 18.456 110.512 21.656 110.512 25.752ZM103.072 23.592C103.008 19.688 101.632 17.736 98.9445 17.736C97.6325 17.736 96.6085 18.216 95.8725 19.176C95.1685 20.136 94.7365 21.72 94.5765 23.928H103.072V23.592Z" fill="#141414"/>
<path d="M121.541 39.816C119.333 39.816 117.605 39.192 116.357 37.944C115.141 36.664 114.533 34.856 114.533 32.52V3.38402L122.117 2.56802V32.232C122.117 33.288 122.549 33.816 123.413 33.816C123.861 33.816 124.277 33.736 124.661 33.576L126.149 38.952C124.773 39.528 123.237 39.816 121.541 39.816Z" fill="#141414"/>
<path d="M135.791 39.816C133.583 39.816 131.855 39.192 130.607 37.944C129.391 36.664 128.783 34.856 128.783 32.52V3.38402L136.367 2.56802V32.232C136.367 33.288 136.799 33.816 137.663 33.816C138.111 33.816 138.527 33.736 138.911 33.576L140.399 38.952C139.023 39.528 137.487 39.816 135.791 39.816Z" fill="#141414"/>
<path d="M156.868 39.048C155.844 42.344 154.164 44.872 151.828 46.632C149.524 48.424 146.42 49.432 142.516 49.656L141.7 44.328C144.132 44.008 145.924 43.464 147.076 42.696C148.26 41.928 149.204 40.696 149.908 39H147.316L139.54 13.512H147.604L152.164 34.152L157.156 13.512H164.98L156.868 39.048Z" fill="#141414"/>
<path d="M83 4.5C83 6.98528 80.9853 9 78.5 9C76.0147 9 74 6.98528 74 4.5C74 2.01472 76.0147 0 78.5 0C80.9853 0 83 2.01472 83 4.5Z" fill="#406FA6"/>
</svg>
